<mxfile host="65bd71144e">
    <diagram id="3gE6q-l4s0hjYAIaTJxC" name="Page-1">
        <mxGraphModel dx="1384" dy="648" grid="1" gridSize="10" guides="1" tooltips="1" connect="1" arrows="1" fold="1" page="1" pageScale="1" pageWidth="850" pageHeight="1100" math="0" shadow="0">
            <root>
                <mxCell id="0"/>
                <mxCell id="1" parent="0"/>
                <mxCell id="8" value="" style="rounded=0;whiteSpace=wrap;html=1;fillColor=none;strokeColor=none;" vertex="1" parent="1">
                    <mxGeometry x="150" y="140" width="460" height="580" as="geometry"/>
                </mxCell>
                <mxCell id="4" value="" style="shape=actor;whiteSpace=wrap;html=1;fillColor=#212121;" parent="1" vertex="1">
                    <mxGeometry x="180" y="160" width="400" height="560" as="geometry"/>
                </mxCell>
                <mxCell id="7" value="" style="shape=image;verticalLabelPosition=bottom;labelBackgroundColor=#ffffff;verticalAlign=top;aspect=fixed;imageAspect=0;image=data:image/png,iVBORw0KGgoAAAANSUhEUgAAAZAAAADhCAQAAABMvyuXAAAABGdBTUEAALGPC/xhBQAAACBjSFJNAAB6JgAAgIQAAPoAAACA6AAAdTAAAOpgAAA6mAAAF3CculE8AAAAAmJLR0QA/4ePzL8AACb+SURBVHja7Z13XBRX18fv7FKlqxQpKnZFjd3Ya2KSxyQYQxJNjNEotliIPkQ0eTN5xN419t6jiIKxoWisWFExIihdYEFBWHYBWdiZ+/5h2zszW2eV4vny+cTs7p3f3nvuObfPLEIAAAAAAAAAAAAAAAAAAAAAAAAAALxzUGACcQRaejI0u9Dbxt25nqO7vYezt4OXo5ejl11dISsrc5UyhUyRXZSjyFXkFMmKZHQuQgHSMIZIixEK9bH3rO1l7+bg4eTp4Onk6ehp5/oqDX4trcxVZCuylVkKWVGO8rE8t0hGP6EtEEuzUDcQIJVpN4zQ6k4+Xb07+XRxbUZJNCxpqE0xQggx5Tlxmdezb2XHTHuA0Kou9d/37uDT2bUZJTWqdvDrf5nynLjMq1mx6VeDk6CiIEDeKrQVUju1rd+xfief911bSSzNaD+MWYSIQBOlhhDC6jJZbObVzNjMm8GpARKNXgqAADF/j7G6U9P+TT5o0N3CBlHVynIY4WeFKWeSoh+cDkmHqgTM22dYILRjyL/7VEWYxSyuzrCYVWTFrFjRlZZAvUIPYhZWdO4wvMNwO1ejZwP41b+atqaQ6a6JEctRe/lfysiaxHkPYndc20o/gfqFADHZLnSdDiO6jHL30+vSL0b7RdlFWYrswkzlY0WOPLskc+YjhBAKtLS2tcUVaieMUIVr16+7Tazra1qG0i5d2XQ1wpphWCfqqQXDupXRaoQQmt/QycfZ297L2dPZy9HLycu5/otQ1AebFH1jT9JuGhNhB0CA6Gebf5eRrT7T6WYYYYRTzz25/yThyb3sBDpfu1qQrdqy40edh7X6FOmegmM99cGqiu4cuLKr6DZS0+Xak4V61fPzaO3eyqOtV0d9oaKS3953bdu0G1DnECCGzDckqFaHMT2nuDTUYRe2MD3tXPr1zDvy20itf7eB9m4/olegSwNdwVaYnnoh43pugtSifnufLk37WzvrSp1+5fyG+4cXKfWXZ4adbxffzj5dmg6wdtKpeOn8nz8ceL50DQDaWt4Gl1eoFNqnuBWl9yMiJi1sabjinKaX16gUWqf2bEVpQmTElGVtSOelJSu7R/2afgkz2q8sSIuc/ouT4Tn5s1vUr+mXdCwysAWpR6YF2YIXAFqGJVfWqcu0OY9KcXvvji+DHYxRnN/w6kZ9itOcdSnMqndwfNIptkKLW7PKnCNBM+yM6iE9wyY+jGYrtEWJMudIEG0PowqA4zaXV2JGy8Iok3Bkzze0lXGKc+vFrNaluHcYXctQrRDXiEm5t7X0Jqwy50iQ0eX1iJyaE6etN1Hm/P0z+ATwajhzmq4oFXZlRWbUr6ENjFasFf2HdsVTvxmviBBCy7td36BlsMYWpO4aZqxegHR5j6sbtQwo2YKUHV+DbwDor1HyLGEXyY7d/pUp22n7RsuzhN04O3b7VyKD2fHvnxXZwuopZxe3NV5xpkvkdIVM2AIpZ5a+Bx7yDrO0ffpFQWdjEiLXf2SS4nuC02AWM/cj1g0yz8g+0DJsXP5D4XxfWTPby3jFydZhE7UqrpzpAp7yLg6sHK+sE5wjMHF7lnUySdFZUJHFzJ3dS9ubO/87vpbdEQrF0qeHfzJtoLnj69zbQkFSmh8+EfzlHePQpNKnArFRfnPb3NamKYZPFFBkGdXNzcYsChvH1s/TLwqFZHbsit6mKW72F+xT2exbK/vB6a13hFAfQSdgbm6fY6Ir054Ciixmbmyd0/hNl2bjx4I9CfPPfHMrnp0HvvMOsGWIUEufen5pd1MVt/mX5vPdKeXs4q5vabAo2TtSnsEP0Mxrc5qaphgg3TtK/khA8er8RuBBNZpLy/nVLm5B89Jy3iCHLUjeMeQtz6hsTs7Cam7ZVIqd35iqGOxwchZ/+KZSbP8KNhFrKHN8Zbd4Db0q+n+0o6mKixrLeNNaRnX2D8O3AM1avqZJp3jhz1xeYbrivBYCiuzlVTAbqYFsCyiTc6v60dVFHUSsI33JV8yIMf96lTHsG1GSx81T1nXaW4TijyW8AWTW9Tm+4FE1issreC19+fHZk61FKK7k9x0ngyt/+BHimnCUm7PSp5v9TVf81TfxOF9xy5AAKfhVjYC2z4jhVDBbkGL6pBwh2vHRVf5MZknHqlLiyKm8gy5M1GwxihFBQooQIjWARU0LUrjOHLstpI7pigv8ClK5ire2G3fO942XusOT+9w83twuRnFx1ycJXMUbW2E2Us1Z24s7T1CXHRovSnFgWRFXsSruNNO1Eo9xB0bpl4y5f4SnWJs/1Eq/KEYRqGR2f8ldqCx+vLqvKMXhfMVVA6tq+U/9Hze3eYm/1xejGEXzFBNCfcDTqiVbB3MrM/OaaQfNX7JlCEeRzbxCN6zKNtgyhNuD5ieLc+gtX3F70PxkcUEHVAqre1SUkM58ey9tL0qxL2eiyt7ZWfVvUF36XmEa6dBPU8QF9ZLOhemkYkEShEg1Y1UX8kYgtuLkLHGKK3pyFaNmVg9bhLg+usINEXEOTXs8usYNERhoVSMWty4r0Ky+itJtAWJXhcoKOYpfVCeLxO4kp9f5ybSnqBCxiN3JDZG57uB51YJFjRXZxCrTs/WfiFNc2JyjWLb+g+pmlasbyRDJiTP9iI2wouxO1VrqBgSZ606OuRmV2Lae9uQp+ldHy3Ad+tFVYx9EweX6BlIxIwa2Dqs4tHNeIrnfu3ekuRX3jaiu1olZTTp04nFzKyYcBR+s0nCOgDDhgaIVyekoc3BsdbbPlTXkzCF2l7kVb20HL6yyJB4jnfnETDMrssd/qe42urufdOgz88Uqxh0gbXQ6FDyxKg6uJDf3kBV1YblYzZu7ScWLS6q/nQKkicfJUu2fJE4xyDbxJKkYBg95qHocm4kZzL76Y66tF634M0dxbQ1pSmqlnHk1c2Axiys29BOp6Jj6j4alWFy+6YOa5Fs14hbKtb2wLcWyGCEpZihV/vQ40YodWTsJRVEsJaEQKs7/792aU+Uru1vYUyzFIhZjxLIFP8WL0wu09OtsYS/FapZiJRgzasWUOAQAAAAAAAAAAAAAAAAAAAAAAAAAAAAAAAAAAAAAAAAAAAAAAAAAAAAAAAAAAAAAAAAAAAAAAAAAAAAAAAAAAAAAAAAAAAAAAAAAAAAAAAAAAAAAAAAAAAAAAAAAAAAAAAAAAAAAAAAAAAAAAAAAAADUMCjzS9IeTp52rpbSwicKGcql2apvhPkuNh61PCztivMV2Y9yN1ZUz6qkLRp/MuJIlc6hlY2Hjbu9G2KKHpflzs5F2IhrvVEZnV+tA2Rdj2YDm33o1YWSvNLFmC1Mi4+MP3H2fBij3WydxlnasRSSUhKESrKHbuGlsO80xtLuuSDGlGbI4fKyMkWJvCBtepzxOV7WpsnA5h806mNh8yLHGCGESp8+OHH/ePIJWqE1x45dxlK2FPX8mmf5Q9ZpS7nLv25LyoKSsBRF4Yr7x6bf5qYI/8HeC0ueK5UX39pEF5tq/4tLe049v6xvsP6UQbYDxkltKRYhhBGFEEWxFEISjBDmuCxFIZR5Z8xJzfeOTrZ0RIilJJhlS3OGbjfAue0bDGzWv/mgOk1e+RxGCLPZsQ9OPfhn0j8GKNj8ksnirSMmR+lPu+NLtxYURbFYjbBKeXsTra4CbUPYuIIUzGJtsGUF5+fTzsLXhv+IGY206tAG3BQHxxMp2Bd/xKsyeeLxnQGG53jj4PTLunKsLrt7YF4z4WsjpxL5YTb11/YtTJmm6IMTvL6rIVZrKu0faXq/XVGCcUXprHr600ZMxMwrK7I8K7DkX3GuZjMaPkKj7CxWz2+oJ19uZ0LL5LosLX90aBJtpVtlTmPMYKxSrB2or2yBlkzZi5wzmMHqHZ+L82yJ+ODYPlT+6Mv1Lo109EaUtUvvmTMehI0T+lBqR1wpsbHlprCwJ/JJvfgjXlk7Nf94xP68xDX99Od4gV9GzNgjDbrryrHUuk1A8N1zC4Md+B9acvIjraVt0CMhKt6SVzIbW7Ls2pT003uyhS1CFrZ9x+tPa2n3yoaaluTa98WfhW2ghUZdaNYWhSSUna5vOhESktx/trWTLks7+Qz5c1rq7u906VhghBCycvjxsL4QsbOQWGrkXmJhW8kBcnbeyANOPoaktHP7cl3qebo2931Ot04OoV40xIYOGOs2H3cibIzuRHu+DbpSv5shg0updZ/gWQmLOvA+4A5EtM2zWH2j7HLWQCW9g6buE5+XqMfEGXb6UmNsnLon1n6tBdY+sHpw7KO5Vg6GfIOT17c7L67UkeCFXazs9YWIE0PanGIrNUAeRvULMUKD8u09Npr21p1IzXNdbMQoUmr9xdo1H2r//Mzvw3cZVmkvq+6n0yt66w5YVouT0Fh3YJmPfuOsXwxga9XtMVpvciPzITNhprqg/pS4Zp8YMcelek5Ju6BtqMW8yrGV/Y+H1g3SkVcsrjEwa4Dc3tX0Q2Ov8Wz/01myjaM4RpTyjCoxqpASy2+3BEi1zJXG9P/d2IUJ29oTjv7ZzRQHo/V+k9RMiyS9g17/f58gbaU3uQehtNeWmhKeVI867tLI2FI07BUQpmuI9SJEHH4MX/+RAQtP1PMFCHGWtTD90hMz230rZP2SvCf3FblY7VCvtq9LQ34I2ru6OqESjQs4KRj9RcIaLkrx1+KcvP2/DdspsM7Wd8ifAuGB1WWyOwqZSmnv5uzj1pLi2cSylrOXKRaKp95sA/WSvd9pDnJdfP2Hh+3Slb4gBVcQpeTOQ1gyNa2x8M1y0gqH+Dfhbn5CA6WnaQUpxTmUlaOHu5+dK78uWn12ZsGAmQKjCkzOoUaHo6HjT+obDpoDkwNkSYtBc7gFZMuvb72xo+Dm64W1hc3bBfSZYe302hlTz+398TeZTu/nOQ1Lfg/e/FX6NcQiZElZW1g4NurccnDLz8m8dPoOCQTIsJ1Sa+6XJZ06v+rumdWql2/Mc20+pM/0OhrrV4UZ+8dNiDKLtfl9I8VfVjWevjNI5b7TkM4AGRl5301aywqXU1bSCkxZ+f9fxx80bbKohyITs1YMQkhSTiU9MXZIdvin5p9w33v29PySm/t/S3vVx0gcO7w/sstYbo30D15xfNoFXhOFuU2W9hDR6Ttvj/jD3PW67JvCy6K/ON3Z+XyZr6L0SJDAomMQsQjILG7NM/hk4ouY1T24KfaPJhcSn8kDLblpjkzj5rgkb8N/tPWObMXzRchrW2h77qfHg8mFyi0fa1vFIpaDceo5boplfmSKQ+ONr4ktH/MXajcOMkbh8irSvrSnDuefQH7Tgjb8ybkih5uf2K0zXYTUQhtkxHBrJVlgX2ShN2knjDEuL9n4sV6bs7u/rpQ5yMqOrTjry4nHlveZ9VAo7cKidt9H/4aYrJhlHT9brl9b7xCLwry97q+3PiRaExsnX87KWoC0/yzyncLUVd3GHRP+io8X7PiiXKHM3vJp1x9N37p7O/T9L3+hts80MYrljOFppbzepfNkBw+ylz5Ndxy9oFDo6l8zGnT/9yD5XuO+Gz825Jsta406pHMuYhZMDJDuE8hKyX+w//slJdrTfzB3vrtPj18STBmGCEzSBQ6DJB4nX9s4k6+HfmvnSoxqn20fFpKsPRuj/l7j4eg95pioXha/+fBY0blRX/67zQYt62SEE2DuUNnwaxleGbsFkq/v7vvwf7oU5nyTc1u3AkIVgo2mhc2PekNEUjmrWC3IoQk+MIUu0H3FrKfmcwpGoNDKXI7xOBtELQeTr88t+vm67m/5+RmqBvSbLrgqR/WbarqmjY4eRN8saXFbF+IkhEr+1xTdV4QxfwWSs5ymA/TtrL+u5R8PbfpER6NEVcoy78rW9u6ar9MuTDplviqXmrT2U8udDFllHvl58w+IalOcXWPGbriyJoJofpM2Xwp/0vbrOb6mqpZiw3t47kZhi0Fkiosr5uttGn++eT9C87W1g3tPzrdQ2kPkh4OaQ7IwMx+ONSlAfDlnj27tf7tuQVny32vMyVM5sVK2oq3GShpCKOHo/DwR3//Ghk7Gtnd9plEaex5PszQq1rLf5Ddiez2NQWPyqA++vdcQ1dh95OsmnK1ZNYV0hMiocI0QweZYFxQZIM5eRHZxyrk3GxC8M6a8jbA/e7f2J8KjmJxaOzckDZx0GtUAQup0Hq05q9o2gtWYnXUeE+Jqmm4tEU7lQuwYyTOCkwy5KuEsJoZ1Lg30eITWEKE5Hs1WRoCQqxTqstx0sc2SkemJ+cU817+njj0mIUqSfIa8wM6NtK8svmq4OCOq+vpP1pxpxR3Iv625VGHl0GesYTpcJ3pmcq5oCWnpXAPtPL+gOEfHgJk37D4SoirkhsiLuUgt0psqZSednIGUFDi96VuMOBOvL1YOfopZxCJsYe3o4dKIF+Y4ltOxO7hxXCDvbbi/HxZZUp0E2fbQHETha3/Zllzd1eqz1w7SY3LQ8uUmLDXYGuFUnAUTC7s6hG/kGlpu5WMHjTN6jh66k2fFbPwoMOrl+bMXc5FwatiYCLmFeevQJDkrYuus4hnNmDNLjF4n8fbT/fmzgtTD5DuWnGPkqjJz5ljbYUWBoyaU+Q4s9hlrq3Ey+klC3gVaPTFqaNbrYyf2Hj1GLl//NnvEYksJ4VHlhtqZqiAC2cpGTzxJplxHg8ZFax47tbD5YT87NCGmCsxBSh4T3aEzwqgqgQ/+xL2LrIRzs6atS/WfgfSepvnq6la6FKG1xdeI+zH7/kxLzGxcnXWdUVZO7IbZ1TVwaEaRKRVP9F8z5frmARWlxEDMavTB9ziHjiplmVf5mHS2INuq5DhX133/Fy+kyfNEVG3v6h4eu4e7NNTodVVXtj7/v5htmhP1Ok0bDTXACczWwIUxpG84GXjIM55yqMepL91hyiCE0KQbWz9TEz2P1HrEVvPa2bQAySXXlFr2qDKdB3N2brdJAl0/Zyzs29OsRtTSjfu9wf2R/sQBxbuHXh7l+ONRYjTZh6C3uktTTLi2d2fDGs8eftaO2scoAiOyF7sd489s+YIMETN3mKbp5cSTg6rmg0Q5Naf94p/uMbSKMbvukwG/Cn2SF0fmmLuvLnIip80JbPRdySurgSXd9EG9dpoFv7JdowfdrpnSp+uf/c26UKCntmT/ki16a4NOS7Xk3Fqlb5Xx9aLw+JM7vmZUby7gTQqQlDPkqnXXMbSj6Vkwfhr1NCknLifu8Z3Hd1RyQknipGXMO+tpzl3N157t1/U3W0hTNlpmNBYuxrbehtqCPOCe/yDv3OtXd04Waba/VP/J6C2SdJIMIcOOvHT7iTRw0inewg0mglRjv3zM3zt1hEilTNJpecYVzdfWzn1/fZNG5xQS7wr0bOfZzqO9R/uDnMr/6H/aXDLhKCn5Sajp+SkrIl97tBRO596GzM0zuT5lw7a1lr7XhLgv+9FNt95r+q3ts6bf2oHrB7TskXGDaJ0/W+BnnLnF1FV8NEMcdfTtvWWIvmtOhDgQc5XH8SGphvYgCCE0OnLPMLZCjEXNHCAIxR8iX/eZsV3nZJD2vLFho8nDGl4hX7UX3+1+fE/zgzqND0/SmmOiZavf7dIy3d96bm6EFi2FjNTy8xe+ybXdF7qvExpzGWKPAf8l663DtxNOTTwz4dzEsxNOj4uecLwtaWmq/7S314MsUj4kTylQwzYvbKnrig0ffvgH+c6/4cYOTUce3vsd+0Z240wMkJtbOdNe6ttde7U+uGVx62lXOo0de+TaFv4zTUzqUTQ62NPzyM8Gzubf4IQQQlNucw/E9wi6oDVEgmyTT/cJ+Xx1+qWFzQUCJIt87eI7ajo/1bJOxH16CCFlFjcNdyfdkPWk0AZtvuK1+ZSudr/DiFAfY+xbRhnev/DPAkQvIpsB29qBJ5Z01ia3fejIMAlxtk4lj9Z71xB/52nEgf2jMWP+IZbJREzhPwLsxgZ+RQRIT/2mUrxMIs/k3wwTEUSq8O8o5HwXu1zzQTyU7DaZjajZwjle1olVc7OcdmGNwHrWnm/kGa/vW4sUGEWX5pM6KuXObziNQtucu9xv498JuawNeadc+GT9AxzO/X8G8c8CIxQZXc1YxCSyLoR6h3sR3O9XKaNm0jb8ccWVNfw6OSEwXJ/fkHxU36r2QnnbO5KvtudbkQswpl7ov+rxOLdWZLB2Cmw/cmjUg+PZ/ypyKbWDu3PjFoP8PrfWmMI6eY896remxxST11BeNCCa6aPm/bBf0636/JfeIPQU159v9trRifNInIa9Jl4YfDXxSNqNZ7IShZ1r7Qa+PdsM1TzaaFnrs+XJg8O+CiHO/tw71Jk452RlP2Jv1xGx+/IfFjyyq+verHHv9ydKOGeOlTmTL+srWLuvLzXFLLkQUFEUMf/1PfMhrp1HG19b3cbT87Q/SpWLyohWV+jmhKO/NRtoaUfa58N5vWZ8Gpl4Ni9Z+URq6VzPvUWLj5oN4q//FaadWmqqTw7fYWk5dD15lBVX3ib2wualT7U9TlLLQy1fPFx0bVtOD2LcPensqvfIz7NjyS+4sFg4xwHSzOs6csxozTMbNYNUWtWF31ZplFyQ078LDD7b8u+15mvuHv76iihax2M8dXA82PAeJKSO4T3IklZCqXYO12kfrTYqKxJ4TJ/BPQhCCIWNIy2qabu32oMg9MsD52Fj/pZYGbkOwp78beJdXbqCJ1yxLs3o0O/DNT/vPnnO2tfPz9AwHuPnP+264O4upSvX9yOvcGYrU653XNt9sjElz3/4gcCNpxLKgDUjSvqqNZ5h12Oi5hUsc20zqkAUZiUY4+cjbpaiKIQo665jNaV7TqNX0WXmXwoVfi7W93tdGwmuKFK616b2jAi+Jc6hAzYcshiyyuz7haay6RPuaFxPY1gRzns+7+FpRHvCLm4r0IOwunoQhDKvkd8Tq/XAwfxGsltGNb3sre1COoGW2TcMFykrWtldeMHWkP5g76uHqR6eSn4SFx5oqWXd0OLBGTLtgUBtNolZbXoPwu/vX3Lsv0y5MYYuK9z2hdZa4/QgKzvqmR+z5pqDiIy0sceXdpXdNPCwIi7K2PH50A28LHCezct/LhavheOliJpP5qH9iOUdhDMRkrqxy+2dhh6vrCg5EdLhB6FPNlZs6pd23jCVZwUbPp4ao6W3NCAnr+5gpHqTszd8bZu2XzOh1Vc2c5bipxq6MmWUV2hN+5/FGz8teWKoTO7dZT1GHTKon8IISS10z4+PBb+cp1JUpQYIQr+leHWO/Knokb4DChXF0b85+446LvARuUtK8fPESSEwCBsTkUk8goGy+OgPbVmh1R1GbvXPvKr3SAV7a/vipp8s1KpT3Khv1OyKEn3Nwv3DS7sIh4fBvFi+3PVNbeI+88IUmY5nAaRHKombkNxabTVwJ8pah1NRRhzYnxA1t/W5heVKfemUsr+DNnSedd/QVX6E9fnt4CUnf30eIrjSnhdAOotNeGDKWUbFm36xmGUrMs4fnRaq9Vzn+gEVCsy8/FNk0W66UxTLfnHiq6zp9+ypxu9CMAWJ+p6MsfnT+MNlRQJDHBazeQnn5mrrg0h+r39mjjxDeGpfXnx71/oBOu1WS5nxqmTqV3+M5p9K/nJK+vdUzc8qiv/6XnfeDk1SP3s9LWbLD2n59ZEDPzBlL5YoGMzk3dM5qO5fUfw6rTIjWO+DwGfVO03nxAlPzJnytAuHJ9B6f/Qh0LIo5bWdSrJpA05jn/oNs5jd/B9xnm3W+Ap2aN6vYQcnTzv3Wq5SqSJHkV2cm5+aGGXoT2cFSD0sctVhum6/ogIkOj5/2bpRgRae2JBfFqKt6nRv2t3Jx66uo4eVXfETZbYyVy5L/mfGfeNKvqKzT3vP9s7ets5WDupnZUUlebl3H8XlXKJLDSk1QmH8H0qgEKqE+2womtL/o3m0xPgf1gv1ajLAs41dXXt3ezemoiS/+IkyNyM2I9rwxedAS2tJHeb5GMCwK3YPb9T91Ay6DAEAAAAAAAAAAAAAAAAAAAAAAAAAAAAAAAAAAAAAAAAAAAAAAAAAAAAAAAAAAAAAAAAAAAAAAAAAAAAAAAAAAAAAAAAAAAAAAAAAAAAAAAAAAAAAANQAqABpoCUtMa9ogBQMC5j5V27fLrTzsK1SB/Tyt97Zi2tGRYhUrD1sq9QeIUQhCiHEXlg9OrLmVn3MMrc2CCGEMUISLLvR61eR1rP6cIFbG4QoFmOEEM690fP/IMAqlYPjMfP6N7fVz5b0FKsYNpFUXNq9ptru4hKN3y1nS/NDG4hVvLD0lSKL2dK8UC/w0Eon/pDmz9MXps/2Ea0YqflD94XphvxkffVj5zeaDQFWb/MXq7h7uGZNYPXWweCdVYAg24IUTYfOvB5UW+RAwaYglaNoW9OstqJrRYlGEdl/FohVXPV+RSmhGAq+WUVY3JaobJwQOdnarIps/JGaZbEFfqX5mhZLvyhWcV4rUjHjPPhlFWLvMGK4wF5Za4bhgpkVqw6zveQZms6syKY9zKyYRbuBV1YpLi0nxr/siRCxipdXkopRs2uGpWhn2W1NZ8bMip5iFXPizKsImB8q9R+iktgj08yuGFT9zRRomXaeLNXe78TOAVMvkeGx53twx6rYMnoUppEVdXiCSEU3jiJ7aFJ1txK55ofZ86In5+SaH2YvLARfrKIsaqdSkCFyaLxIxQ4cRfbghOpsoSvriPDACaI3Qa9uJOyDE46AH1ZhNg7GajJEIqeKVmRqykDrxmYyPGSxYlf7bmwlw0N2i64NXlil2fAhueSL2ej/iVNc/xGxvo8xe2ZODRhc4cf/htQRNQC1io8gw+PxvVn1wAOrPOv6lxeTDn15lbjzZmsHCihWs6l5UhQZHnkJ4sIjyPZhNBkeeYmz4WBJ9WBFzzI5WXm39gU7iFFc1YureHtXNVq+cM6IIcOjIEnczkeI66OrpD3yk8Wf5ALeGsu6lD4lKzDpXIirqKDrzFVMPk3bVAdbhHrlJXCGQvHiwuP3+nmJXEUIj2rGgvcUMrISs+Jmi6rEBW0U2aRi5k1xQfc2WNKq6BGZ69w4cRPpxW0VmRzFu2J34oFKYG5reRZnlJy6vIcYxXktuK6R/3BF16psg23+ZQWcoL48w06UYkBZIamYEVP1mwlAi0M/4QwuMBM+WYzi/EaP47mKVXfz8NIyzhI1Tjou5i7JAOlF8vgNxvjhSXGzO6BSCXFNPcdxaBwfKWb9JtiBcwAFYzb+cNVb/V9QX3aH48xs7BZRzU0z2R1uyWO3gY9Vc2gJd3sM48L01f3FaJpf0dzsH805AYBZtbgNzgM/8hQrasLZNAAhdHQGd6iBmdO0GMXjwTxFNvqPKtIk2Mf9xQ1glWLjYDGKd/ebVxGoYmz25+5jYJweM7etmRUvz2tR2SVd20eezs1XYfqidqYrrutP3uuBMcaFaWIUgSrI3NYFSdxqLi85OkOMYn4yT7H46PRK7DtqXVvPqnlhe4mua7Ki87V1fMWM87QzeFTNm424pZ3nDhQwK7u90uSnloTUSbsgoHhr6fuVUb69w5Qyritj9qaIafSebwUVN4Mv1VhOzOTNHTBmYv40/bklJ0IEFNmY1aa32qawpEXScV6o4tL8XcNMVVz63sOTAopPd34DXlSjWdyWt/yJMS4rOj6LthehyKNMfvwXsYfJDewZ695Yx1bwg/TeQVODNNTn+ib+wAqz/x6mPcGD3gFO/y7Q6mN51l+jTFakza1oINTp2Zjvyrgkb98I0wSDbIWtU5K37wfwnHeGZZ2yb/L7EczmxG32N1GxjaAilt3Z/OmbKkXEpJLHQqWIOzDL3RS9AGnElJI8fhkwG7dH3OF4oKbMRzBmU8+v7muaosDuyHPFc3/2Nnfu940oSBEKSEX2ti/MrugP3vJOsrBl8mkhl8Bszt3wibSj8YrzWiVHa1GMOzjB1FkOyRzf6D+UOcLfcm2tKSejQhtoVWSurYUl3Xeand/wt8FeTtwvLVvU1HjF3cPlj7QpXlg+r5mY3G75+G6YYC+FMZt6YWl74xU3faJdMeXs4rbgIe88dK2Ts7jnjDSHR3u+N/bJvMEOUb9rVWRSz+353vhbrUJcTwYXJAu28hjjwozd3xl7TndWPZ2K6buHg28AL4dGrhcWa2lHMcZlhZfXrjPyMCLtfXGlLsWYdWv7GKhks/+7++GY0ebKytzD04zMm9W+EfGHdSjmRE6tzr8aA7wRQn2u6HBpzMqzLq1a15+2MGa2cHmtPsXVfbW7YrDDrq/uHdTuyBgrcyOnGzNHmGG3a+i9MN2KR6bNsIPwAASZW+/8ApVCu/tgrFL+e/DQWMNvMZ3je36lSomxXkXiYc+rO0XNTDuvI7gwxgVpEUGGD/5WdI2amXZOV2hgtiAlYoq4+w1rJtBakAOQ2u2+6/VT7SY67IIRKkzLuPLoRlqs/K7smSdDs9r1JlvXcW0/vOe42o10fi0uTMuKLXkqtXCp79PZ2llnreDUixc23Dv1qDCM0VkSCapbv5tP+wbv1+9i7ayzpnHqPxfXHosIYxEGD4AAMYCtn7//fUt/pO9nQTFCeYm5iU8SHic+faDMnJ0jZF9aGo/9pL7/6TSy1WcirY1VRbF7r23LjEfICdNl3ICIp/ysrT2dvd2ae7R0benm5+Sp9/uwSn5r+9UtP8dDnUOAGNuXeHf6usOIem0NtBBGGKGiHHmGMqcop0gmz1bmMGpKiiwlFKOWqBHCEtu6fh82H+LobFp+ZPHxR5IvIxYzCFFSCcWWowrEWjo4N3TydvFy8HCq5+Rl62JwnWKEE4/e2J16mGag34AAMZkFfu8Naevv2f7F796a0Oqb0d7YPCqMKul0/N/3wukCqF8IELMwx7f95036N+pnWZ1XeDBCiqykqAdn7p6wVeqaNwEQICaypnvTAU0HNOxlcn9SSYHxrCApOuVc2tnpD6EOIUDeOL84NerZtEeTft6dKKnZLIgRYtWUhJKYU1GlSD2XfD71kjwOsbQaag4C5G3aDSO0rJNrU9emdRvXbezo6dKAY01Kz1wCI6RSKHLlmU8e5qXlPXiaGJKM0LIudZu4N63btE4jx3ou9TV0KANmJxghVVFRTlFm3sO85NyH+Qm/ZkBFQYBUOrQFzSBMWyC3Wm7O7s71HN3sXR3r2bnaOls5WDta2VvZq5QqZbmirLi0sORxUY4iT5GvyJXnFudYlzxlVpfTUhm1sUJDT0KzCNFWyAK5Obo5ujt4OLnauzrUs69r42Rtb+1oZWdlr1KqFCqFSvmsUJmrzJU/Ln4szynNeSKzf0aztAWpB0CAVE27voXlU1qCEEIw5QYAAAAAAAAAAAAAAAAAAAAAAAAAAAAAAACASuf/AdN23GVcv6VwAAAAJXRFWHRkYXRlOmNyZWF0ZQAyMDIxLTExLTI4VDIzOjM4OjMzKzAwOjAwZ+glTAAAACV0RVh0ZGF0ZTptb2RpZnkAMjAyMS0xMS0yOFQyMzozODozMyswMDowMBa1nfAAAAAASUVORK5CYII=;" vertex="1" parent="1">
                    <mxGeometry x="180" y="450" width="400" height="225" as="geometry"/>
                </mxCell>
            </root>
        </mxGraphModel>
    </diagram>
</mxfile>